<svg width="23" height="22" viewBox="0 0 23 22" fill="none" xmlns="http://www.w3.org/2000/svg">
<path d="M10.1602 3.70334C14.6143 3.70358 18.2256 7.31454 18.2256 11.7688C18.2253 16.2228 14.6142 19.834 10.1602 19.8342C5.70593 19.8342 2.09497 16.2229 2.09473 11.7688C2.09473 7.31439 5.70578 3.70334 10.1602 3.70334Z" stroke="black" stroke-width="1.09091"/>
<path d="M12.473 8.62646C12.9634 8.62646 13.361 9.02405 13.361 9.51449C13.361 10.0049 12.9634 10.4025 12.473 10.4025C11.9825 10.4025 11.585 10.0049 11.585 9.51449C11.585 9.02405 11.9825 8.62646 12.473 8.62646Z" fill="black"/>
<path d="M7.84604 8.62637C8.33648 8.62637 8.73407 9.02396 8.73407 9.5144C8.73407 10.0048 8.33648 10.4024 7.84604 10.4024C7.3556 10.4024 6.95801 10.0048 6.95801 9.5144C6.95801 9.02396 7.3556 8.62637 7.84604 8.62637Z" fill="black"/>
<path d="M13.0095 12.8366C12.7542 14.506 11.6867 15.3203 10.055 15.3203C8.51217 15.213 7.3731 14.4863 7.10059 12.8366" stroke="black" stroke-width="1.09091" stroke-linecap="round"/>
<mask id="path-5-outside-1_38937_6445" maskUnits="userSpaceOnUse" x="12.1826" y="0.90921" width="10" height="10" fill="black">
<rect fill="white" x="12.1826" y="0.90921" width="10" height="10"/>
<path fill-rule="evenodd" clip-rule="evenodd" d="M17.4553 2.90921C17.1541 2.90921 16.9099 3.15342 16.9099 3.45467V5.45458H14.7281C14.4268 5.45458 14.1826 5.69878 14.1826 6.00003C14.1826 6.30128 14.4268 6.54549 14.7281 6.54549H16.9099V8.72739C16.9099 9.02864 17.1541 9.27285 17.4553 9.27285C17.7566 9.27285 18.0008 9.02864 18.0008 8.72739V6.54549H20.0008C20.302 6.54549 20.5463 6.30128 20.5463 6.00003C20.5463 5.69878 20.302 5.45458 20.0008 5.45458H18.0008V3.45466C18.0008 3.15342 17.7566 2.90921 17.4553 2.90921Z"/>
</mask>
<path fill-rule="evenodd" clip-rule="evenodd" d="M17.4553 2.90921C17.1541 2.90921 16.9099 3.15342 16.9099 3.45467V5.45458H14.7281C14.4268 5.45458 14.1826 5.69878 14.1826 6.00003C14.1826 6.30128 14.4268 6.54549 14.7281 6.54549H16.9099V8.72739C16.9099 9.02864 17.1541 9.27285 17.4553 9.27285C17.7566 9.27285 18.0008 9.02864 18.0008 8.72739V6.54549H20.0008C20.302 6.54549 20.5463 6.30128 20.5463 6.00003C20.5463 5.69878 20.302 5.45458 20.0008 5.45458H18.0008V3.45466C18.0008 3.15342 17.7566 2.90921 17.4553 2.90921Z" fill="#101010"/>
<path d="M16.9099 5.45458V6.54549H18.0008V5.45458H16.9099ZM14.1826 6.00003H13.0917H14.1826ZM16.9099 6.54549H18.0008V5.45458H16.9099V6.54549ZM18.0008 6.54549V5.45458H16.9099V6.54549H18.0008ZM18.0008 5.45458H16.9099V6.54549H18.0008V5.45458ZM18.0008 3.45467C18.0008 3.75591 17.7566 4.00012 17.4553 4.00012V1.8183C16.5516 1.8183 15.819 2.55093 15.819 3.45467H18.0008ZM18.0008 5.45458V3.45467H15.819V5.45458H18.0008ZM14.7281 6.54549H16.9099V4.36367H14.7281V6.54549ZM15.2735 6.00003C15.2735 6.30128 15.0293 6.54549 14.7281 6.54549V4.36367C13.8243 4.36367 13.0917 5.09629 13.0917 6.00003H15.2735ZM14.7281 5.45458C15.0293 5.45458 15.2735 5.69878 15.2735 6.00003H13.0917C13.0917 6.90377 13.8243 7.63639 14.7281 7.63639V5.45458ZM16.9099 5.45458H14.7281V7.63639H16.9099V5.45458ZM18.0008 8.72739V6.54549H15.819V8.72739H18.0008ZM17.4553 8.18194C17.7566 8.18194 18.0008 8.42615 18.0008 8.72739H15.819C15.819 9.63113 16.5516 10.3638 17.4553 10.3638V8.18194ZM16.9099 8.72739C16.9099 8.42615 17.1541 8.18194 17.4553 8.18194V10.3638C18.3591 10.3638 19.0917 9.63113 19.0917 8.72739H16.9099ZM16.9099 6.54549V8.72739H19.0917V6.54549H16.9099ZM20.0008 5.45458H18.0008V7.63639H20.0008V5.45458ZM19.4553 6.00003C19.4553 5.69878 19.6996 5.45458 20.0008 5.45458V7.63639C20.9045 7.63639 21.6372 6.90377 21.6372 6.00003H19.4553ZM20.0008 6.54549C19.6996 6.54549 19.4553 6.30128 19.4553 6.00003H21.6372C21.6372 5.09629 20.9045 4.36367 20.0008 4.36367V6.54549ZM18.0008 6.54549H20.0008V4.36367H18.0008V6.54549ZM16.9099 3.45466V5.45458H19.0917V3.45466H16.9099ZM17.4553 4.00012C17.1541 4.00012 16.9099 3.75591 16.9099 3.45466H19.0917C19.0917 2.55093 18.3591 1.8183 17.4553 1.8183V4.00012Z" fill="white" mask="url(#path-5-outside-1_38937_6445)"/>
</svg>
