<svg width="24" height="24" viewBox="0 0 24 24" fill="none" xmlns="http://www.w3.org/2000/svg">
<path d="M6.37476 10.1499C6.706 10.1499 6.97513 10.4183 6.97534 10.7495C6.97534 11.0808 6.70613 11.3501 6.37476 11.3501H4.12476C3.83512 11.3503 3.60055 11.5848 3.60034 11.8745V20.9995C3.60034 21.2893 3.83499 21.5246 4.12476 21.5249H19.8748C20.1647 21.5249 20.4001 21.2894 20.4001 20.9995V11.8745C20.3999 11.5847 20.1646 11.3501 19.8748 11.3501H17.6248C17.2936 11.3498 17.0251 11.0807 17.0251 10.7495C17.0254 10.4184 17.2937 10.1501 17.6248 10.1499H19.8748C20.8273 10.1499 21.6001 10.922 21.6003 11.8745V20.9995C21.6003 21.9522 20.8274 22.7251 19.8748 22.7251H4.12476C3.17224 22.7248 2.40015 21.952 2.40015 20.9995V11.8745C2.40036 10.9221 3.17237 10.1501 4.12476 10.1499H6.37476ZM11.5759 1.45064C11.8102 1.21632 12.1902 1.21632 12.4246 1.45064L16.9246 5.95064C17.1589 6.18495 17.1589 6.56496 16.9246 6.79927C16.6902 7.03349 16.3102 7.03355 16.0759 6.79927L12.6003 3.32271V13.1245C12.6003 13.4558 12.3311 13.7251 11.9998 13.7251C11.6686 13.7248 11.4001 13.4557 11.4001 13.1245V3.32368L7.92456 6.79927C7.69024 7.03349 7.31021 7.03355 7.07593 6.79927C6.84165 6.56499 6.84171 6.18496 7.07593 5.95064L11.5759 1.45064Z" fill="#101010"/>
</svg>
