<svg width="36" height="36" viewBox="0 0 36 36" fill="none" xmlns="http://www.w3.org/2000/svg">
<rect x="0.5" y="0.5" width="35" height="35" rx="5.5" fill="white"/>
<rect x="0.5" y="0.5" width="35" height="35" rx="5.5" stroke="#CCCCCC"/>
<path fill-rule="evenodd" clip-rule="evenodd" d="M16.7748 11.2C16.4849 11.2 16.2498 11.4351 16.2498 11.725V12.1721H19.2165V11.725C19.2165 11.4351 18.9814 11.2 18.6915 11.2H16.7748ZM15.0498 11.725V12.1721H10.65C10.291 12.1721 10 12.4631 10 12.8221C10 13.1811 10.291 13.4721 10.65 13.4721H11.7168V23.5998C11.7168 24.8517 12.7316 25.8665 13.9835 25.8665H21.3446C22.5964 25.8665 23.6112 24.8517 23.6112 23.5998V13.4721H24.8167C25.1757 13.4721 25.4667 13.1811 25.4667 12.8221C25.4667 12.4631 25.1757 12.1721 24.8167 12.1721H20.4165V11.725C20.4165 10.7723 19.6442 10 18.6915 10H16.7748C15.8221 10 15.0498 10.7723 15.0498 11.725ZM22.4112 13.4721H12.9168V23.5998C12.9168 24.1889 13.3944 24.6665 13.9835 24.6665H21.3446C21.9337 24.6665 22.4112 24.1889 22.4112 23.5998V13.4721ZM15.8328 16.2665C15.8328 15.9351 15.5642 15.6665 15.2328 15.6665C14.9014 15.6665 14.6328 15.9351 14.6328 16.2665V22.2386C14.6328 22.57 14.9014 22.8386 15.2328 22.8386C15.5642 22.8386 15.8328 22.57 15.8328 22.2386V16.2665ZM17.7328 15.6665C18.0642 15.6665 18.3328 15.9351 18.3328 16.2665V22.2386C18.3328 22.57 18.0642 22.8386 17.7328 22.8386C17.4014 22.8386 17.1328 22.57 17.1328 22.2386V16.2665C17.1328 15.9351 17.4014 15.6665 17.7328 15.6665ZM20.8328 16.2665C20.8328 15.9351 20.5642 15.6665 20.2328 15.6665C19.9014 15.6665 19.6328 15.9351 19.6328 16.2665V22.2386C19.6328 22.57 19.9014 22.8386 20.2328 22.8386C20.5642 22.8386 20.8328 22.57 20.8328 22.2386V16.2665Z" fill="#555555"/>
</svg>
